<svg width="18" height="17" viewBox="0 0 18 17" fill="none" xmlns="http://www.w3.org/2000/svg">
<path d="M8.98242 0.6875C10.5238 0.6875 11.9495 0.987495 13.2594 1.58749C14.5693 2.18748 15.6048 3.00335 16.366 4.03508C17.1272 5.06677 17.5078 6.19216 17.5078 7.4112C17.5078 8.63021 17.1272 9.75718 16.366 10.7921C15.6048 11.827 14.5709 12.6445 13.2641 13.2444C11.9574 13.8444 10.5302 14.1444 8.98242 14.1444C8.494 14.1444 7.98968 14.1095 7.46954 14.0397C5.21132 15.6079 4.00929 16.4015 3.86339 16.4206C3.79361 16.446 3.72698 16.4428 3.66356 16.4111C3.63818 16.392 3.61916 16.3666 3.60647 16.3348C3.59378 16.3031 3.58745 16.2746 3.58745 16.2491V16.2111C3.62552 15.9634 3.91412 14.9317 4.45331 13.1159C3.22905 12.5064 2.25694 11.6984 1.53698 10.6921C0.817014 9.68578 0.457031 8.59214 0.457031 7.4112C0.457031 6.19216 0.837629 5.06677 1.59883 4.03508C2.36002 3.00335 3.39556 2.18748 4.70545 1.58749C6.01534 0.987495 7.441 0.6875 8.98242 0.6875Z" fill="black" fill-opacity="0.9"/>
</svg>
